<?xml version="1.0" encoding="utf-8"?>
<!-- Generator: Adobe Illustrator 17.1.0, SVG Export Plug-In . SVG Version: 6.00 Build 0)  -->
<!DOCTYPE svg PUBLIC "-//W3C//DTD SVG 1.1//EN" "http://www.w3.org/Graphics/SVG/1.1/DTD/svg11.dtd">
<svg version="1.1" id="Layer_1" xmlns="http://www.w3.org/2000/svg" xmlns:xlink="http://www.w3.org/1999/xlink" x="0px" y="0px"
	 viewBox="-61 0 392.6 40.8" enable-background="new -61 0 392.6 40.8" xml:space="preserve">
<g>
	<path fill="#FFFFFF" d="M77.3,15.1h-28l-1,0.8v24.9H56v-9.4l0.7-0.7h20.6c5.2,0,7.6-1.4,7.6-5v-5.7C84.9,16.5,82.5,15.1,77.3,15.1
		 M77.3,24.3c0,1.7-1.1,2-3.6,2H56.8L56,25.6v-5.3l0.7-0.7h17c2.4,0,3.6,0.3,3.6,2V24.3z"/>
	<polyline fill="#FFFFFF" points="99.1,19.8 105.8,29.6 105.4,30.5 90.6,30.5 86.8,35.2 108.8,35.2 110.4,36.1 113.8,40.8 
		122.7,40.8 103.2,14.8 	"/>
	<polyline fill="#FFFFFF" points="187.4,35.8 187.4,28.8 188.2,28.1 203.1,28.1 203.1,23.7 179.5,23.7 179.5,40.8 214.3,40.8 
		214.3,36.4 188.3,36.4 	"/>
	<rect x="179.5" y="15.1" fill="#FFFFFF" width="35.1" height="4.8"/>
	<path fill="#FFFFFF" d="M140.4,19.7h28.3c-0.4-3.6-2.7-4.6-8.3-4.6h-20.3c-6.4,0-8.4,1.2-8.4,6.1v13.6c0,4.8,2,6.1,8.4,6.1h20.3
		c5.7,0,7.9-1.1,8.1-4.8h-28.1l-0.8-0.8v-15"/>
	<path fill="#FFFFFF" d="M29.3,25.1H8.8l-0.6-0.7V20l0.6-0.5h27.7l0.4-0.9c-0.9-2.4-3.4-3.6-7.9-3.6H9.7c-6.4,0-8.4,1.2-8.4,6.1V24
		c0,4.8,2,6.1,8.4,6.1h20.5l0.6,0.6v4.6L30.3,36H6.8v0H0.7c0,0-0.7,0.4-0.7,0.5c0.5,3.4,2.8,4.3,8.3,4.3h21c6.4,0,8.5-1.2,8.5-6.1
		v-3.5C37.8,26.4,35.7,25.1,29.3,25.1"/>
	<path fill="#FFFFFF" d="M236.7,15h-11.6l-0.6,1.2l12.8,9.4c2.4-1.4,5.1-2.8,7.9-4.2"/>
	<path fill="#FFFFFF" d="M247.1,32.6l11.3,8.2H270l0.5-1.1l-16.8-12.3C251.5,29.1,249.2,30.8,247.1,32.6"/>
	<path fill="#B3CAD1" d="M235,40.8h-10.5l-0.9-1.4c7.1-6.9,38.9-36.3,108-39.4C331.6,0,273.7,2,235,40.8"/>
</g>
</svg>
